<?xml version="1.0" standalone="no"?>
<!DOCTYPE svg PUBLIC "-//W3C//DTD SVG 20010904//EN"
 "http://www.w3.org/TR/2001/REC-SVG-20010904/DTD/svg10.dtd">
<svg version="1.0" xmlns="http://www.w3.org/2000/svg"
 width="96.000000pt" height="96.000000pt" viewBox="0 0 96.000000 96.000000"
 preserveAspectRatio="xMidYMid meet">
<metadata>
Created by potrace 1.16, written by Peter Selinger 2001-2019
</metadata>
<g transform="translate(0.000000,96.000000) scale(0.100000,-0.100000)"
fill="#000000" stroke="none">
<path d="M385 833 c-96 -24 -209 -125 -244 -218 -29 -77 -29 -194 1 -272 29
-80 121 -172 201 -201 79 -30 195 -30 274 0 80 29 172 121 201 201 30 79 30
195 0 274 -29 80 -120 170 -201 201 -57 21 -175 29 -232 15z m189 -117 c49
-20 112 -81 135 -130 25 -50 28 -149 7 -200 -20 -49 -81 -112 -130 -135 -50
-25 -149 -28 -200 -7 -49 20 -112 81 -135 130 -25 50 -28 149 -7 200 20 48 80
111 129 135 50 25 150 28 201 7z"/>
</g>
</svg>
